<svg width="16" height="16" viewBox="0 0 16 16" fill="none" xmlns="http://www.w3.org/2000/svg">
    <path
        d="M7.99999 2.66671C9.09847 2.66671 9.99999 3.56823 9.99999 4.66671V6.66671H5.99999V4.66671C5.99999 3.56823 6.90151 2.66671 7.99999 2.66671ZM11.3333 6.66671V4.66671C11.3333 2.83185 9.83485 1.33337 7.99999 1.33337C6.16513 1.33337 4.66666 2.83185 4.66666 4.66671V6.66671H3.99999C3.26361 6.66671 2.66666 7.26366 2.66666 8.00004V13.3334C2.66666 14.0698 3.26361 14.6667 3.99999 14.6667H12C12.7364 14.6667 13.3333 14.0698 13.3333 13.3334V8.00004C13.3333 7.26366 12.7364 6.66671 12 6.66671H11.3333ZM3.99999 8.00004H12V13.3334H3.99999V8.00004Z"
        fill="#32302D" />
</svg>