<svg width="16" height="16" viewBox="0 0 16 16" fill="none" xmlns="http://www.w3.org/2000/svg">
    <path
        d="M1.33334 3.99996C1.33334 3.26358 1.9303 2.66663 2.66668 2.66663H13.3333C14.0697 2.66663 14.6667 3.26358 14.6667 3.99996V11.3333C14.6667 12.0697 14.0697 12.6666 13.3333 12.6666H10.2762L8.47141 14.4714C8.21107 14.7317 7.78896 14.7317 7.52861 14.4714L5.72387 12.6666H2.66668C1.9303 12.6666 1.33334 12.0697 1.33334 11.3333V3.99996ZM13.3333 3.99996H2.66668V11.3333H6.00001C6.17682 11.3333 6.34639 11.4035 6.47141 11.5286L8.00001 13.0572L9.52861 11.5286C9.65363 11.4035 9.8232 11.3333 10 11.3333H13.3333V3.99996ZM4.00001 6.33329C4.00001 5.9651 4.29849 5.66663 4.66668 5.66663H11.3333C11.7015 5.66663 12 5.9651 12 6.33329C12 6.70148 11.7015 6.99996 11.3333 6.99996H4.66668C4.29849 6.99996 4.00001 6.70148 4.00001 6.33329ZM4.00001 8.99996C4.00001 8.63177 4.29849 8.33329 4.66668 8.33329H8.66668C9.03487 8.33329 9.33334 8.63177 9.33334 8.99996C9.33334 9.36815 9.03487 9.66663 8.66668 9.66663H4.66668C4.29849 9.66663 4.00001 9.36815 4.00001 8.99996Z"
        fill="#32302D" />
</svg>