<svg width="32" height="32" viewBox="0 0 32 32" fill="none" xmlns="http://www.w3.org/2000/svg">
    <rect x="0.5" y="0.5" width="31" height="31" rx="15.5" fill="white" />
    <path
        d="M15.8048 11.5286C16.0651 11.789 16.0651 12.2111 15.8048 12.4714L12.9428 15.3334H20.6667C21.0349 15.3334 21.3334 15.6318 21.3334 16C21.3334 16.3682 21.0349 16.6667 20.6667 16.6667H12.9428L15.8048 19.5286C16.0651 19.789 16.0651 20.2111 15.8048 20.4714C15.5444 20.7318 15.1223 20.7318 14.8619 20.4714L10.8619 16.4714C10.7369 16.3464 10.6667 16.1769 10.6667 16C10.6667 15.8232 10.7369 15.6537 10.8619 15.5286L14.8619 11.5286C15.1223 11.2683 15.5444 11.2683 15.8048 11.5286Z"
        fill="#32302D" />
    <rect x="0.5" y="0.5" width="31" height="31" rx="15.5" stroke="#D1CDCB" />
</svg>