<svg width="32" height="32" viewBox="0 0 32 32" fill="none" xmlns="http://www.w3.org/2000/svg">
    <rect x="0.5" y="0.5" width="31" height="31" rx="15.5" fill="white" />
    <path
        d="M16.1953 11.5286C16.4557 11.2683 16.8778 11.2683 17.1382 11.5286L21.1382 15.5286C21.2632 15.6537 21.3334 15.8232 21.3334 16C21.3334 16.1769 21.2632 16.3464 21.1382 16.4714L17.1382 20.4714C16.8778 20.7318 16.4557 20.7318 16.1953 20.4714C15.935 20.2111 15.935 19.789 16.1953 19.5286L19.0573 16.6667L11.3334 16.6667C10.9652 16.6667 10.6667 16.3682 10.6667 16C10.6667 15.6319 10.9652 15.3334 11.3334 15.3334L19.0573 15.3334L16.1953 12.4714C15.935 12.2111 15.935 11.789 16.1953 11.5286Z"
        fill="#32302D" />
    <rect x="0.5" y="0.5" width="31" height="31" rx="15.5" stroke="#D1CDCB" />
</svg>