<svg width="34" height="28" viewBox="0 0 34 28" fill="none" xmlns="http://www.w3.org/2000/svg">
<path d="M3.66665 4.98877C3.89975 4.89455 4.17999 4.79047 4.50477 4.68549C5.65353 4.31417 7.355 3.93294 9.49998 3.93294C11.645 3.93294 13.3464 4.31417 14.4952 4.68549C14.82 4.79047 15.1002 4.89455 15.3333 4.98877V23.1211C13.9146 22.6805 11.9336 22.2663 9.49998 22.2663C7.06637 22.2663 5.08534 22.6805 3.66665 23.1211V4.98877ZM17 2.07507C16.6238 1.90826 16.1275 1.70997 15.5204 1.51373C14.091 1.05171 12.0425 0.599609 9.49998 0.599609C6.95746 0.599609 4.90893 1.05171 3.47956 1.51373C2.76492 1.74473 2.2039 1.97855 1.81147 2.16055C1.61516 2.25159 1.46073 2.3298 1.35001 2.38843C1.29464 2.41775 1.25017 2.4422 1.21682 2.46092L1.17515 2.48462L1.16062 2.49306L1.15493 2.49639L1.15249 2.49783C1.14921 2.49977 0.741818 2.74119 1.15031 2.49912C0.643868 2.79924 0.333313 3.34426 0.333313 3.93294V25.5996C0.333313 26.1984 0.654566 26.7512 1.17486 27.0477C1.69481 27.344 2.33367 27.3387 2.84866 27.034C2.84412 27.0366 2.84127 27.0384 2.84127 27.0384L2.84346 27.0371L2.84606 27.0356L2.84866 27.034C2.8588 27.0283 2.87927 27.0171 2.90996 27.0009C2.97136 26.9684 3.07327 26.9164 3.21388 26.8512C3.49528 26.7207 3.93035 26.5378 4.50477 26.3522C5.65353 25.9808 7.355 25.5996 9.49998 25.5996C11.645 25.5996 13.3464 25.9808 14.4952 26.3522C15.0696 26.5378 15.5047 26.7207 15.7861 26.8512C15.9267 26.9164 16.0286 26.9684 16.09 27.0009C16.1207 27.0171 16.1412 27.0285 16.1514 27.0342C16.1559 27.0368 16.1587 27.0384 16.1587 27.0384M16.1587 27.0384L16.1565 27.0371L16.1539 27.0356L16.1514 27.0342C16.6746 27.3433 17.3256 27.3435 17.8487 27.034C17.8588 27.0283 17.8793 27.0171 17.91 27.0009C17.9714 26.9684 18.0733 26.9164 18.2139 26.8512C18.4953 26.7207 18.9304 26.5378 19.5048 26.3522C20.6535 25.9808 22.355 25.5996 24.5 25.5996C26.645 25.5996 28.3464 25.9808 29.4952 26.3522C30.0696 26.5378 30.5047 26.7207 30.7861 26.8512C30.9267 26.9164 31.0286 26.9684 31.09 27.0009C31.1207 27.0171 31.1412 27.0285 31.1514 27.0342L31.1532 27.0351C31.6678 27.3387 32.3058 27.3436 32.8251 27.0477C33.3454 26.7512 33.6666 26.1984 33.6666 25.5996V3.93294C33.6666 3.34426 33.3561 2.79924 32.8497 2.49912L32.8475 2.49783L32.845 2.49639L32.8393 2.49306L32.8248 2.48462L32.7831 2.46092C32.7498 2.4422 32.7053 2.41775 32.6499 2.38843C32.5392 2.3298 32.3848 2.25159 32.1885 2.16055C31.7961 1.97855 31.235 1.74473 30.5204 1.51373C29.091 1.05171 27.0425 0.599609 24.5 0.599609C21.9575 0.599609 19.9089 1.05171 18.4796 1.51373C17.8724 1.70997 17.3762 1.90826 17 2.07507M30.3333 4.98877V23.1211C28.9146 22.6805 26.9336 22.2663 24.5 22.2663C22.0664 22.2663 20.0853 22.6805 18.6666 23.1211V4.98877C18.8997 4.89455 19.18 4.79047 19.5048 4.68549C20.6535 4.31417 22.355 3.93294 24.5 3.93294C26.645 3.93294 28.3464 4.31417 29.4952 4.68549C29.82 4.79047 30.1002 4.89455 30.3333 4.98877ZM31.1514 5.36753C31.1559 5.37008 31.1587 5.37169 31.1587 5.37169L31.1565 5.37041L31.1514 5.36753ZM31.1514 27.0342L31.1569 27.0373L31.1532 27.0351" fill="#0D0D0D"/>
</svg>
