<svg width="14" height="13" viewBox="0 0 14 13" fill="none" xmlns="http://www.w3.org/2000/svg">
<path d="M4.78922 0.104524C4.92607 0.0589088 5.07401 0.0589088 5.21086 0.104524L9.00004 1.36758L11.9117 0.397019C12.7751 0.109227 13.6667 0.751853 13.6667 1.66193V9.58981C13.6667 10.1637 13.2995 10.6732 12.755 10.8547L9.21086 12.0361C9.07401 12.0817 8.92607 12.0817 8.78922 12.0361L5.00004 10.773L2.08834 11.7436C1.22497 12.0314 0.333374 11.3888 0.333374 10.4787V2.55082C0.333374 1.97691 0.700614 1.46739 1.24507 1.28591L4.78922 0.104524ZM5.66671 9.58981L8.33337 10.4787V2.55082L5.66671 1.66193V9.58981ZM4.33337 1.66193L1.66671 2.55082V10.4787L4.33337 9.58981V1.66193ZM9.66671 2.55082V10.4787L12.3334 9.58981V1.66193L9.66671 2.55082Z" fill="#32302D"/>
</svg>
