<svg width="14" height="14" viewBox="0 0 14 14" fill="none" xmlns="http://www.w3.org/2000/svg">
<path d="M0.333374 1.06901C0.333374 0.700821 0.631851 0.402344 1.00004 0.402344H6.33337C6.51019 0.402344 6.67975 0.472582 6.80478 0.597606L13.4714 7.26427C13.7318 7.52462 13.7318 7.94673 13.4714 8.20708L8.13811 13.5404C7.87776 13.8008 7.45565 13.8008 7.1953 13.5404L0.528636 6.87375C0.403612 6.74872 0.333374 6.57915 0.333374 6.40234V1.06901ZM1.66671 1.73568V6.1262L7.66671 12.1262L12.0572 7.73568L6.05723 1.73568H1.66671Z" fill="#32302D"/>
<path d="M5.00004 4.06901C5.00004 4.6213 4.55233 5.06901 4.00004 5.06901C3.44776 5.06901 3.00004 4.6213 3.00004 4.06901C3.00004 3.51673 3.44776 3.06901 4.00004 3.06901C4.55233 3.06901 5.00004 3.51673 5.00004 4.06901Z" fill="#32302D"/>
</svg>
