<svg width="14" height="13" viewBox="0 0 14 13" fill="none" xmlns="http://www.w3.org/2000/svg">
<path d="M0.333374 2.26693C0.333374 1.53055 0.930328 0.933594 1.66671 0.933594H12.3334C13.0698 0.933594 13.6667 1.53055 13.6667 2.26693V5.60026V11.6003C13.6667 12.3366 13.0698 12.9336 12.3334 12.9336H5.00004H1.66671C1.66383 12.9336 1.66096 12.9336 1.65808 12.9336C0.925674 12.9289 0.333374 12.3338 0.333374 11.6003V5.60026V2.26693ZM1.66671 4.93359H5.00004H12.3334V2.26693H1.66671V4.93359ZM4.33337 6.26693H1.66671V11.6003H4.33337V6.26693ZM5.66671 11.6003H12.3334V6.26693H5.66671V11.6003Z" fill="#ED7635"/>
</svg>
