<svg width="16" height="16" viewBox="0 0 16 16" fill="none" xmlns="http://www.w3.org/2000/svg">
    <path
        d="M5.78919 2.03421C5.92604 1.9886 6.07398 1.9886 6.21083 2.03421L10 3.29727L12.9117 2.32671C13.7751 2.03891 14.6667 2.68154 14.6667 3.59162V11.5195C14.6667 12.0934 14.2994 12.6029 13.755 12.7844L10.2108 13.9658C10.074 14.0114 9.92604 14.0114 9.78919 13.9658L6.00001 12.7027L3.08831 13.6733C2.22494 13.9611 1.33334 13.3185 1.33334 12.4084V4.48051C1.33334 3.9066 1.70058 3.39708 2.24504 3.2156L5.78919 2.03421ZM6.66668 11.5195L9.33334 12.4084V4.48051L6.66668 3.59162V11.5195ZM5.33334 3.59162L2.66668 4.48051V12.4084L5.33334 11.5195V3.59162ZM10.6667 4.48051V12.4084L13.3333 11.5195V3.59162L10.6667 4.48051Z"
        fill="#32302D" />
</svg>