<svg width="16" height="16" viewBox="0 0 16 16" fill="none" xmlns="http://www.w3.org/2000/svg">
    <path
        d="M2.66666 2.66671C2.66666 1.93033 3.26361 1.33337 3.99999 1.33337H9.33332C9.51013 1.33337 9.6797 1.40361 9.80473 1.52864L13.1381 4.86197C13.2631 4.98699 13.3333 5.15656 13.3333 5.33337V13.3334C13.3333 14.0698 12.7364 14.6667 12 14.6667H3.99999C3.26361 14.6667 2.66666 14.0698 2.66666 13.3334V2.66671ZM11.7238 5.33337L9.33332 2.94285V5.33337H11.7238ZM7.99999 2.66671L3.99999 2.66671V13.3334H12V6.66671H8.66666C8.29847 6.66671 7.99999 6.36823 7.99999 6.00004V2.66671ZM5.33332 8.66671C5.33332 8.29852 5.6318 8.00004 5.99999 8.00004H9.99999C10.3682 8.00004 10.6667 8.29852 10.6667 8.66671C10.6667 9.0349 10.3682 9.33337 9.99999 9.33337H5.99999C5.6318 9.33337 5.33332 9.0349 5.33332 8.66671ZM5.33332 11.3334C5.33332 10.9652 5.6318 10.6667 5.99999 10.6667H9.99999C10.3682 10.6667 10.6667 10.9652 10.6667 11.3334C10.6667 11.7016 10.3682 12 9.99999 12H5.99999C5.6318 12 5.33332 11.7016 5.33332 11.3334Z"
        fill="#32302D" />
</svg>