<svg width="16" height="16" viewBox="0 0 16 16" fill="none" xmlns="http://www.w3.org/2000/svg">
    <path
        d="M3.33333 2C2.59695 2 2 2.59695 2 3.33333V12.6667C2 13.403 2.59695 14 3.33333 14H7.99935C7.99978 14 8.00022 14 8.00065 14H12.6667C13.403 14 14 13.403 14 12.6667V8.00065C14 8.00022 14 7.99978 14 7.99935V3.33333C14 2.59695 13.403 2 12.6667 2H3.33333ZM12.6667 7.72386L7.72386 12.6667H3.33333V3.33333H12.6667V7.72386ZM9.60948 12.6667L12.6667 9.60948V12.6667H9.60948Z"
        fill="#32302D" />
</svg>