<svg width="16" height="16" viewBox="0 0 16 16" fill="none" xmlns="http://www.w3.org/2000/svg">
    <path
        d="M7.55711 1.50177C7.8097 1.27724 8.19034 1.27724 8.44293 1.50177L14.4429 6.8351C14.7181 7.07971 14.7429 7.50109 14.4983 7.77628C14.2537 8.05147 13.8323 8.07626 13.5571 7.83165L13.3334 7.63275V12.6667C13.3334 13.4031 12.7364 14 12 14H4.00002C3.26364 14 2.66668 13.4031 2.66668 12.6667V7.63275L2.44293 7.83165C2.16774 8.07626 1.74636 8.05147 1.50174 7.77628C1.25713 7.50109 1.28192 7.07971 1.55711 6.8351L7.55711 1.50177ZM4.00002 6.44757V12.6667H6.00002V9.33337C6.00002 8.96518 6.29849 8.66671 6.66668 8.66671H9.33335C9.70154 8.66671 10 8.96518 10 9.33337V12.6667H12V6.44757L8.00002 2.89201L4.00002 6.44757ZM8.66668 12.6667V10H7.33335V12.6667H8.66668Z"
        fill="#32302D" />
</svg>