<svg width="16" height="16" viewBox="0 0 16 16" fill="none" xmlns="http://www.w3.org/2000/svg">
    <path
        d="M1.33334 3.33333C1.33334 2.59695 1.9303 2 2.66668 2H13.3333C14.0697 2 14.6667 2.59695 14.6667 3.33333V4.66667C14.6667 5.16472 14.3936 5.59898 13.989 5.82792C13.9963 5.88425 14 5.94169 14 6V12.6667C14 13.403 13.4031 14 12.6667 14H3.33334C2.59696 14 2.00001 13.403 2.00001 12.6667V6C2.00001 5.94169 2.00375 5.88425 2.01101 5.82792C1.60642 5.59899 1.33334 5.16472 1.33334 4.66667V3.33333ZM13.3333 4.66667V3.33333H2.66668V4.66667H13.3333ZM3.33334 6V12.6667H12.6667V6H3.33334ZM5.33334 8C5.33334 7.63181 5.63182 7.33333 6.00001 7.33333H10C10.3682 7.33333 10.6667 7.63181 10.6667 8C10.6667 8.36819 10.3682 8.66667 10 8.66667H6.00001C5.63182 8.66667 5.33334 8.36819 5.33334 8Z"
        fill="#32302D" />
</svg>