<svg width="12" height="14" viewBox="0 0 12 14" fill="none" xmlns="http://www.w3.org/2000/svg">
<path d="M0.666748 1.66732C0.666748 0.930939 1.2637 0.333984 2.00008 0.333984H7.33341C7.51023 0.333984 7.67979 0.404222 7.80482 0.529247L11.1382 3.86258C11.2632 3.9876 11.3334 4.15717 11.3334 4.33398V12.334C11.3334 13.0704 10.7365 13.6673 10.0001 13.6673H2.00008C1.2637 13.6673 0.666748 13.0704 0.666748 12.334V1.66732ZM9.72394 4.33398L7.33341 1.94346V4.33398H9.72394ZM6.00008 1.66732L2.00008 1.66732V12.334H10.0001V5.66732H6.66675C6.29856 5.66732 6.00008 5.36884 6.00008 5.00065V1.66732ZM3.33341 7.66732C3.33341 7.29913 3.63189 7.00065 4.00008 7.00065H8.00008C8.36827 7.00065 8.66675 7.29913 8.66675 7.66732C8.66675 8.03551 8.36827 8.33398 8.00008 8.33398H4.00008C3.63189 8.33398 3.33341 8.03551 3.33341 7.66732ZM3.33341 10.334C3.33341 9.96579 3.63189 9.66732 4.00008 9.66732H8.00008C8.36827 9.66732 8.66675 9.96579 8.66675 10.334C8.66675 10.7022 8.36827 11.0007 8.00008 11.0007H4.00008C3.63189 11.0007 3.33341 10.7022 3.33341 10.334Z" fill="#32302D"/>
</svg>
