<svg width="138" height="48" viewBox="0 0 138 48" fill="none" xmlns="http://www.w3.org/2000/svg">
    <g clip-path="url(#clip0_1928_173881)">
        <path fill-rule="evenodd" clip-rule="evenodd" d="M16.7418 17.126H119.622V43.4114H16.7418V17.126Z"
            fill="#ED7635" />
        <path fill-rule="evenodd" clip-rule="evenodd"
            d="M0 47.876H1.74554V1.6063H62.1533H74.9923H135.397V47.876H137.143V0H74.9923H62.1533H0V47.876Z"
            fill="#ED7635" />
        <path fill-rule="evenodd" clip-rule="evenodd"
            d="M68.5728 5.95872C55.1333 5.9319 41.9388 9.82775 30.3947 17.2313C18.8506 24.6348 9.38946 35.2686 3.01901 48.0001H5.48911C11.7828 35.8859 20.9663 25.7974 32.0924 18.7749C43.2186 11.7524 55.8846 8.05024 68.7841 8.05024C81.6836 8.05024 94.3496 11.7524 105.476 18.7749C116.602 25.7974 125.785 35.8859 132.079 48.0001H134.165C127.791 35.2624 118.324 24.6245 106.773 17.2206C95.2214 9.81672 82.0188 5.92442 68.5728 5.95872Z"
            fill="#ED7635" />
        <path fill-rule="evenodd" clip-rule="evenodd" d="M19.0912 30.2834H118.052V41.9025H19.0912V30.2834Z"
            fill="white" />
        <path
            d="M38.6269 37.1723H34.6775L33.9859 38.2057C33.8542 38.3672 33.766 38.5642 33.7306 38.7756C33.7306 38.876 33.8047 38.9616 33.9502 39.0384C34.2609 39.143 34.5853 39.1929 34.9108 39.186V39.3662H31.6969V39.186C31.9791 39.1717 32.2572 39.1079 32.5203 38.9971C32.8612 38.7505 33.1501 38.4296 33.3683 38.0551L36.961 32.6634H37.2217L40.7896 38.1142C40.9853 38.4573 41.2509 38.7481 41.5663 38.9646C41.8728 39.115 42.2065 39.1907 42.5434 39.186V39.3662H38.5062V39.186C38.7856 39.1958 39.0644 39.1518 39.3295 39.0561C39.4722 38.9823 39.5436 38.8908 39.5436 38.7845C39.4993 38.5364 39.3952 38.3053 39.2417 38.1142L38.6242 37.1723H38.6269ZM38.4183 36.812L36.6865 34.1545L34.9108 36.812H38.4183ZM42.505 32.811H45.2852L51.5263 37.7274V33.9567C51.5263 33.5551 51.4522 33.3012 51.315 33.2038C51.0455 33.0466 50.7397 32.9759 50.434 33H50.08V32.8199H53.6314V33H53.2444C52.9212 32.9687 52.5977 33.0572 52.3277 33.251C52.1894 33.4541 52.1303 33.7074 52.1631 33.9567V39.4784H51.8886L45.1754 34.1929V38.2293C45.1754 38.6339 45.2413 38.8819 45.3785 38.9852C45.6491 39.1389 45.9542 39.2085 46.2595 39.186H46.6191V39.3662H43.0703V39.186H43.4217C43.7485 39.2189 44.0759 39.1304 44.3493 38.9351C44.4859 38.7311 44.5439 38.4782 44.5112 38.2293V33.6614C44.3005 33.4924 44.0753 33.345 43.8388 33.2215C43.6218 33.1301 43.3964 33.0638 43.1664 33.0236C42.9475 32.9887 42.7262 32.9739 42.505 32.9793V32.7992V32.811ZM54.1007 39.3662V39.186H54.485C54.8103 39.2195 55.136 39.1251 55.4017 38.9203C55.5392 38.7134 55.5981 38.4578 55.5663 38.2057V33.9715C55.5663 33.561 55.495 33.3071 55.3577 33.2038C55.0921 33.0435 54.7889 32.9696 54.485 32.9912H54.1007V32.811H58.2533C59.4224 32.7742 60.5914 32.8862 61.7361 33.1447C62.4571 33.3237 63.1204 33.7071 63.6573 34.2549C63.8857 34.4857 64.0677 34.7642 64.1923 35.0735C64.3169 35.3827 64.3814 35.7161 64.3819 36.0532C64.3819 36.9665 63.951 37.7293 63.0892 38.3416C62.1194 39.0246 60.6438 39.3662 58.6622 39.3662H54.1007ZM57.01 38.8908C57.541 38.9731 58.0764 39.0184 58.6128 39.0266C59.6291 39.068 60.6351 38.7943 61.511 38.2382C61.8612 38.0228 62.1523 37.7116 62.3548 37.3362C62.5572 36.9607 62.6638 36.5344 62.6638 36.1004C62.6638 35.6664 62.5572 35.2401 62.3548 34.8647C62.1523 34.4892 61.8612 34.1781 61.511 33.9626C60.7426 33.44 59.76 33.1801 58.5552 33.1801C58.0376 33.1849 57.5211 33.2313 57.01 33.3189V38.8908ZM72.0172 37.1723H68.065L67.3762 38.2057C67.2426 38.3662 67.1532 38.5635 67.1182 38.7756C67.1182 38.876 67.1923 38.9616 67.3405 39.0384C67.6512 39.143 67.9756 39.1929 68.3011 39.186V39.3662H65.0872V39.186C65.3694 39.1718 65.6475 39.1079 65.9106 38.9971C66.2531 38.7516 66.5431 38.4305 66.7614 38.0551L70.3513 32.6634H70.6257L74.1772 38.1142C74.3732 38.458 74.6398 38.7489 74.9566 38.9646C75.2622 39.1148 75.595 39.1904 75.931 39.186V39.3662H71.9074V39.186C72.1869 39.1966 72.4659 39.1525 72.7308 39.0561C72.8763 38.9823 72.9476 38.8908 72.9476 38.7845C72.9019 38.5364 72.7969 38.3053 72.643 38.1142L72.0282 37.1723H72.0172ZM71.8059 36.812L70.0741 34.1545L68.3011 36.812H71.8059ZM84.9276 37.5532L85.1774 37.5856L84.3046 39.3573H76.403V39.1772H76.79C77.1183 39.2101 77.4466 39.1147 77.7149 38.9085C77.8465 38.6978 77.9022 38.4426 77.8714 38.191V33.9715C77.8714 33.561 77.8 33.3071 77.66 33.2038C77.3953 33.0435 77.093 32.9697 76.79 32.9912H76.403V32.811H81.0249V32.9912C80.6421 32.9733 80.2588 33.0051 79.8831 33.0856C79.7144 33.1235 79.5598 33.2138 79.4385 33.3455C79.3328 33.5738 79.2908 33.8302 79.3177 34.0837V38.1998C79.3007 38.3931 79.3431 38.5871 79.4385 38.752C79.5147 38.8293 79.61 38.8816 79.713 38.9026C80.1021 38.947 80.4937 38.9628 80.8849 38.9498H81.6314C82.1824 38.9672 82.7336 38.9296 83.2781 38.8376C83.587 38.7673 83.8805 38.634 84.1427 38.4449C84.4503 38.203 84.7144 37.9028 84.9221 37.5591L84.9276 37.5532ZM92.8594 32.9912V32.811H96.474V32.9912H96.0897C95.754 32.9666 95.4225 33.0831 95.1648 33.316C95.0315 33.517 94.9745 33.7652 95.0056 34.0099V36.6673C95.0337 37.1974 94.9285 37.7258 94.701 38.1969C94.4057 38.6381 93.9861 38.9653 93.5044 39.1299C92.7253 39.4215 91.9024 39.5537 91.0782 39.5197C90.2189 39.5607 89.3599 39.4346 88.5422 39.1477C88.0437 38.9648 87.6135 38.6137 87.3154 38.1467C87.1562 37.8514 87.0739 37.3228 87.0739 36.5315V33.9715C87.0739 33.5699 86.9888 33.3041 86.8131 33.1801C86.5568 33.0319 86.2662 32.9663 85.976 32.9912H85.5918V32.811H90.0023V32.9912H89.6126C89.292 32.9599 88.9714 33.0508 88.7069 33.248C88.6316 33.3486 88.5762 33.4646 88.5442 33.589C88.5121 33.7134 88.5039 33.8436 88.5202 33.9715V36.8268C88.5242 37.1255 88.5601 37.4227 88.6273 37.7126C88.6831 38.0068 88.821 38.2756 89.0225 38.4833C89.2643 38.6946 89.5449 38.8486 89.8459 38.9351C90.2751 39.0657 90.7201 39.1264 91.166 39.1152C91.7733 39.1195 92.3773 39.0199 92.9555 38.8199C93.3766 38.7077 93.7546 38.4569 94.0368 38.1024C94.2289 37.8071 94.3277 37.3169 94.3277 36.626V33.9685C94.3277 33.5581 94.2564 33.3041 94.1164 33.2008C93.8506 33.041 93.5475 32.9672 93.2436 32.9882L92.8594 32.9912ZM103.706 32.6634V34.9282H103.431C103.36 34.5407 103.192 34.1815 102.946 33.8888C102.664 33.6006 102.321 33.3908 101.947 33.2776C101.514 33.1246 101.062 33.0479 100.607 33.0502C100.159 33.0293 99.7135 33.1309 99.3119 33.3455C98.9715 33.5423 98.8014 33.7756 98.8014 34.0453C98.81 34.1578 98.844 34.2664 98.9004 34.3616C98.9568 34.4568 99.034 34.5357 99.1252 34.5915C99.4344 34.8337 100.175 35.1555 101.346 35.5571C102.008 35.7709 102.66 36.0233 103.297 36.313C103.603 36.4563 103.878 36.6676 104.104 36.9331C104.276 37.1398 104.373 37.4058 104.378 37.6831C104.378 38.1791 104.076 38.6073 103.478 38.9675C102.761 39.3537 101.965 39.5385 101.164 39.5049C100.885 39.5059 100.605 39.4912 100.327 39.4606C100.174 39.4606 99.8498 39.3868 99.3613 39.2864C99.0549 39.2116 98.744 39.1603 98.4309 39.1329C98.3277 39.1282 98.2252 39.1537 98.1344 39.2067C98.0472 39.279 97.9892 39.3848 97.9725 39.502H97.6981V37.2579H97.9725C98.0634 37.6518 98.2457 38.0145 98.5022 38.312C98.7916 38.5907 99.1374 38.7929 99.5122 38.9026C99.996 39.0608 100.5 39.1385 101.005 39.1329C101.518 39.1595 102.028 39.0511 102.493 38.8169C102.855 38.6043 103.042 38.3534 103.042 38.061C103.032 37.8767 102.958 37.703 102.836 37.5738C102.652 37.3759 102.432 37.2201 102.191 37.1162C101.997 37.0197 101.464 36.814 100.591 36.499C99.958 36.284 99.3359 36.0336 98.7273 35.749C98.4133 35.6015 98.1283 35.3911 97.8874 35.129C97.7115 34.9274 97.6134 34.6614 97.613 34.3849C97.613 33.9124 97.8874 33.499 98.4556 33.1683C99.1187 32.804 99.8577 32.6291 100.602 32.6604C101.183 32.6652 101.762 32.7505 102.323 32.9144C102.516 32.9793 102.716 33.0199 102.918 33.0354C103.029 33.0405 103.14 33.0151 103.239 32.9616C103.336 32.8909 103.406 32.7866 103.44 32.6664L103.706 32.6634Z"
            fill="#ED7635" />
    </g>
    <defs>
        <clipPath id="clip0_1928_173881">
            <rect width="137.143" height="48" fill="white" />
        </clipPath>
    </defs>
</svg>