<svg width="14" height="13" viewBox="0 0 14 13" fill="none" xmlns="http://www.w3.org/2000/svg">
<path d="M0.333374 2.07161C0.333374 1.33523 0.930328 0.738281 1.66671 0.738281H12.3334C13.0698 0.738281 13.6667 1.33523 13.6667 2.07161V9.40495C13.6667 10.1413 13.0698 10.7383 12.3334 10.7383H9.27618L7.47145 12.543C7.2111 12.8034 6.78899 12.8034 6.52864 12.543L4.7239 10.7383H1.66671C0.930328 10.7383 0.333374 10.1413 0.333374 9.40495V2.07161ZM12.3334 2.07161H1.66671V9.40495H5.00004C5.17685 9.40495 5.34642 9.47519 5.47145 9.60021L7.00004 11.1288L8.52864 9.60021C8.65366 9.47519 8.82323 9.40495 9.00004 9.40495H12.3334V2.07161ZM3.00004 4.40495C3.00004 4.03676 3.29852 3.73828 3.66671 3.73828H10.3334C10.7016 3.73828 11 4.03676 11 4.40495C11 4.77314 10.7016 5.07161 10.3334 5.07161H3.66671C3.29852 5.07161 3.00004 4.77314 3.00004 4.40495ZM3.00004 7.07161C3.00004 6.70342 3.29852 6.40495 3.66671 6.40495H7.66671C8.0349 6.40495 8.33337 6.70342 8.33337 7.07161C8.33337 7.43981 8.0349 7.73828 7.66671 7.73828H3.66671C3.29852 7.73828 3.00004 7.43981 3.00004 7.07161Z" fill="#ED7635"/>
</svg>
