<svg width="16" height="16" viewBox="0 0 16 16" fill="none" xmlns="http://www.w3.org/2000/svg">
    <path
        d="M7.67625 1.41727C7.8776 1.30541 8.12242 1.30541 8.32377 1.41727L14.3238 4.7506C14.5354 4.86818 14.6667 5.09126 14.6667 5.33337C14.6667 5.57549 14.5354 5.79857 14.3238 5.91615L8.32377 9.24948C8.12242 9.36134 7.8776 9.36134 7.67625 9.24948L1.67625 5.91615C1.4646 5.79857 1.33334 5.57549 1.33334 5.33337C1.33334 5.09126 1.4646 4.86818 1.67625 4.7506L7.67625 1.41727ZM3.37276 5.33337L8.00001 7.90407L12.6273 5.33337L8.00001 2.76268L3.37276 5.33337Z"
        fill="#32302D" />
    <path
        d="M1.41724 7.67628C1.59605 7.35442 2.00192 7.23846 2.32377 7.41727L8.00001 10.5707L13.6762 7.41727C13.9981 7.23846 14.404 7.35442 14.5828 7.67628C14.7616 7.99813 14.6456 8.404 14.3238 8.58281L8.32377 11.9161C8.12242 12.028 7.8776 12.028 7.67625 11.9161L1.67625 8.58281C1.35439 8.404 1.23843 7.99813 1.41724 7.67628Z"
        fill="#32302D" />
    <path
        d="M1.41724 10.3429C1.59605 10.0211 2.00192 9.90513 2.32377 10.0839L8.00001 13.2374L13.6762 10.0839C13.9981 9.90513 14.404 10.0211 14.5828 10.3429C14.7616 10.6648 14.6456 11.0707 14.3238 11.2495L8.32377 14.5828C8.12242 14.6947 7.8776 14.6947 7.67625 14.5828L1.67625 11.2495C1.35439 11.0707 1.23843 10.6648 1.41724 10.3429Z"
        fill="#32302D" />
</svg>