<svg width="40" height="40" viewBox="0 0 40 40" fill="none" xmlns="http://www.w3.org/2000/svg">
<rect width="40" height="40" rx="12" fill="#ED7635"/>
<path d="M18.1461 11.2481C18.4433 10.5162 19.1614 10 20 10C20.8386 10 21.5567 10.5162 21.8539 11.2481C24.8202 12.0607 27 14.7758 27 18V22.6972L28.8321 25.4453C29.0366 25.7522 29.0557 26.1467 28.8817 26.4719C28.7077 26.797 28.3688 27 28 27H23.4646C23.2219 28.6961 21.7632 30 20 30C18.2368 30 16.7781 28.6961 16.5354 27H12C11.6312 27 11.2923 26.797 11.1183 26.4719C10.9443 26.1467 10.9634 25.7522 11.168 25.4453L13 22.6972V18C13 14.7758 15.1798 12.0607 18.1461 11.2481ZM18.5854 27C18.7913 27.5826 19.3469 28 20 28C20.6531 28 21.2087 27.5826 21.4146 27H18.5854ZM20 13C17.2386 13 15 15.2386 15 18V23C15 23.1974 14.9416 23.3904 14.8321 23.5547L13.8685 25H26.1315L25.168 23.5547C25.0584 23.3904 25 23.1974 25 23V18C25 15.2386 22.7614 13 20 13Z" fill="white"/>
</svg>
