<svg width="40" height="40" viewBox="0 0 40 40" fill="none" xmlns="http://www.w3.org/2000/svg">
    <path
        d="M20 12C17.7909 12 16 13.7909 16 16C16 18.2091 17.7909 20 20 20C22.2091 20 24 18.2091 24 16C24 13.7909 22.2091 12 20 12ZM14 16C14 12.6863 16.6863 10 20 10C23.3137 10 26 12.6863 26 16C26 19.3137 23.3137 22 20 22C16.6863 22 14 19.3137 14 16ZM16 26C14.3431 26 13 27.3431 13 29C13 29.5523 12.5523 30 12 30C11.4477 30 11 29.5523 11 29C11 26.2386 13.2386 24 16 24H24C26.7614 24 29 26.2386 29 29C29 29.5523 28.5523 30 28 30C27.4477 30 27 29.5523 27 29C27 27.3431 25.6569 26 24 26H16Z"
        fill="white" />
</svg>