<svg width="12" height="14" viewBox="0 0 12 14" fill="none" xmlns="http://www.w3.org/2000/svg">
<path d="M4.00008 6.66732C4.36827 6.66732 4.66675 6.36884 4.66675 6.00065C4.66675 5.63246 4.36827 5.33398 4.00008 5.33398C3.63189 5.33398 3.33341 5.63246 3.33341 6.00065C3.33341 6.36884 3.63189 6.66732 4.00008 6.66732Z" fill="#32302D"/>
<path d="M5.33341 6.00065C5.33341 5.63246 5.63189 5.33398 6.00008 5.33398H8.00008C8.36827 5.33398 8.66675 5.63246 8.66675 6.00065C8.66675 6.36884 8.36827 6.66732 8.00008 6.66732H6.00008C5.63189 6.66732 5.33341 6.36884 5.33341 6.00065Z" fill="#32302D"/>
<path d="M6.00008 7.33398C5.63189 7.33398 5.33341 7.63246 5.33341 8.00065C5.33341 8.36884 5.63189 8.66732 6.00008 8.66732H8.00008C8.36827 8.66732 8.66675 8.36884 8.66675 8.00065C8.66675 7.63246 8.36827 7.33398 8.00008 7.33398H6.00008Z" fill="#32302D"/>
<path d="M6.00008 9.33398C5.63189 9.33398 5.33341 9.63246 5.33341 10.0007C5.33341 10.3688 5.63189 10.6673 6.00008 10.6673H8.00008C8.36827 10.6673 8.66675 10.3688 8.66675 10.0007C8.66675 9.63246 8.36827 9.33398 8.00008 9.33398H6.00008Z" fill="#32302D"/>
<path d="M4.66675 8.00065C4.66675 8.36884 4.36827 8.66732 4.00008 8.66732C3.63189 8.66732 3.33341 8.36884 3.33341 8.00065C3.33341 7.63246 3.63189 7.33398 4.00008 7.33398C4.36827 7.33398 4.66675 7.63246 4.66675 8.00065Z" fill="#32302D"/>
<path d="M4.00008 10.6673C4.36827 10.6673 4.66675 10.3688 4.66675 10.0007C4.66675 9.63246 4.36827 9.33398 4.00008 9.33398C3.63189 9.33398 3.33341 9.63246 3.33341 10.0007C3.33341 10.3688 3.63189 10.6673 4.00008 10.6673Z" fill="#32302D"/>
<path d="M4.00008 0.333984C3.63189 0.333984 3.33341 0.632461 3.33341 1.00065H2.00008C1.2637 1.00065 0.666748 1.5976 0.666748 2.33398V12.334C0.666748 13.0704 1.2637 13.6673 2.00008 13.6673H10.0001C10.7365 13.6673 11.3334 13.0704 11.3334 12.334V2.33398C11.3334 1.5976 10.7365 1.00065 10.0001 1.00065H8.66675C8.66675 0.632461 8.36827 0.333984 8.00008 0.333984H4.00008ZM8.66675 2.33398H10.0001V12.334H2.00008V2.33398H3.33341V3.00065C3.33341 3.36884 3.63189 3.66732 4.00008 3.66732H8.00008C8.36827 3.66732 8.66675 3.36884 8.66675 3.00065V2.33398ZM4.66675 2.33398V1.66732H7.33341V2.33398H4.66675Z" fill="#32302D"/>
</svg>
