<svg width="16" height="16" viewBox="0 0 16 16" fill="none" xmlns="http://www.w3.org/2000/svg">
    <path
        d="M8.00001 2.66671C7.63182 2.66671 7.33334 2.96518 7.33334 3.33337C7.33334 4.46154 5.96934 5.02654 5.1716 4.2288C4.91125 3.96845 4.48914 3.96845 4.22879 4.2288C3.96844 4.48915 3.96844 4.91126 4.22879 5.17161C5.02656 5.96938 4.46149 7.33337 3.33334 7.33337C2.96515 7.33337 2.66668 7.63185 2.66668 8.00004C2.66668 8.36823 2.96515 8.66671 3.33334 8.66671C4.46158 8.66671 5.02644 10.0308 4.22875 10.8285C3.9684 11.0888 3.9684 11.5109 4.22875 11.7713C4.4891 12.0316 4.91121 12.0316 5.17156 11.7713C5.96928 10.9736 7.33334 11.5385 7.33334 12.6667C7.33334 13.0349 7.63182 13.3334 8.00001 13.3334C8.3682 13.3334 8.66668 13.0349 8.66668 12.6667C8.66668 11.5385 10.0307 10.9735 10.8285 11.7713C11.0888 12.0316 11.5109 12.0316 11.7713 11.7713C12.0316 11.5109 12.0316 11.0888 11.7713 10.8285C10.9735 10.0307 11.5385 8.66671 12.6667 8.66671C13.0349 8.66671 13.3333 8.36823 13.3333 8.00004C13.3333 7.63185 13.0349 7.33337 12.6667 7.33337C11.5386 7.33337 10.9734 5.96941 11.7712 5.17162C12.0316 4.91127 12.0316 4.48916 11.7712 4.22881C11.5109 3.96846 11.0888 3.96846 10.8284 4.22881C10.0307 5.02657 8.66668 4.4615 8.66668 3.33337C8.66668 2.96518 8.3682 2.66671 8.00001 2.66671ZM6.00545 3.18473C6.0815 2.14957 6.94544 1.33337 8.00001 1.33337C9.05458 1.33337 9.91852 2.14958 9.99457 3.18473C10.7803 2.50655 11.9683 2.54031 12.714 3.286C13.4597 4.0317 13.4935 5.21974 12.8153 6.00548C13.8505 6.08151 14.6667 6.94546 14.6667 8.00004C14.6667 9.05461 13.8505 9.91855 12.8153 9.9946C13.4935 10.7803 13.4598 11.9684 12.7141 12.7141C11.9684 13.4598 10.7803 13.4935 9.99457 12.8153C9.91854 13.8505 9.05459 14.6667 8.00001 14.6667C6.94543 14.6667 6.08148 13.8505 6.00545 12.8153C5.21971 13.4935 4.03165 13.4598 3.28594 12.7141C2.54024 11.9684 2.50649 10.7803 3.18469 9.9946C2.14954 9.91855 1.33334 9.05461 1.33334 8.00004C1.33334 6.94546 2.14956 6.08151 3.18473 6.00548C2.50653 5.21974 2.54028 4.03169 3.28598 3.28599C4.03167 2.5403 5.21971 2.50654 6.00545 3.18473Z"
        fill="#32302D" />
    <path
        d="M8.00001 6.66671C7.64639 6.66671 7.30725 6.80718 7.0572 7.05723C6.80715 7.30728 6.66668 7.64642 6.66668 8.00004C6.66668 8.35366 6.80715 8.6928 7.0572 8.94285C7.30725 9.1929 7.64639 9.33337 8.00001 9.33337C8.35363 9.33337 8.69277 9.1929 8.94282 8.94285C9.19287 8.6928 9.33334 8.35366 9.33334 8.00004C9.33334 7.64642 9.19287 7.30728 8.94282 7.05723C8.69277 6.80718 8.35363 6.66671 8.00001 6.66671ZM6.11439 6.11442C6.61449 5.61433 7.29277 5.33337 8.00001 5.33337C8.70725 5.33337 9.38553 5.61433 9.88563 6.11442C10.3857 6.61452 10.6667 7.2928 10.6667 8.00004C10.6667 8.70728 10.3857 9.38556 9.88563 9.88566C9.38553 10.3858 8.70725 10.6667 8.00001 10.6667C7.29277 10.6667 6.61449 10.3858 6.11439 9.88566C5.6143 9.38556 5.33334 8.70728 5.33334 8.00004C5.33334 7.2928 5.6143 6.61452 6.11439 6.11442Z"
        fill="#32302D" />
</svg>