<svg width="14" height="12" viewBox="0 0 14 12" fill="none" xmlns="http://www.w3.org/2000/svg">
<path d="M3.1953 0.863231C3.45565 0.602881 3.87776 0.602881 4.13811 0.863231L6.80478 3.5299C7.06513 3.79025 7.06513 4.21236 6.80478 4.47271C6.54443 4.73306 6.12232 4.73306 5.86197 4.47271L4.33337 2.94411V10.668C4.33337 11.0362 4.0349 11.3346 3.66671 11.3346C3.29852 11.3346 3.00004 11.0362 3.00004 10.668V2.94411L1.47145 4.47271C1.2111 4.73306 0.788986 4.73306 0.528636 4.47271C0.268287 4.21236 0.268287 3.79025 0.528636 3.5299L3.1953 0.863231ZM9.66671 9.05849V1.33464C9.66671 0.966446 9.96518 0.667969 10.3334 0.667969C10.7016 0.667969 11 0.966446 11 1.33464V9.05849L12.5286 7.5299C12.789 7.26955 13.2111 7.26955 13.4714 7.5299C13.7318 7.79025 13.7318 8.21236 13.4714 8.47271L10.8048 11.1394C10.6798 11.2644 10.5102 11.3346 10.3334 11.3346C10.1566 11.3346 9.98699 11.2644 9.86197 11.1394L7.1953 8.47271C6.93495 8.21236 6.93495 7.79025 7.1953 7.5299C7.45565 7.26955 7.87776 7.26955 8.13811 7.5299L9.66671 9.05849Z" fill="#32302D"/>
</svg>
