<svg width="16" height="16" viewBox="0 0 16 16" fill="none" xmlns="http://www.w3.org/2000/svg">
    <path
        d="M6.66668 2.66671C5.19392 2.66671 4.00001 3.86061 4.00001 5.33337C4.00001 6.80613 5.19392 8.00004 6.66668 8.00004C8.13944 8.00004 9.33334 6.80613 9.33334 5.33337C9.33334 3.86061 8.13944 2.66671 6.66668 2.66671ZM2.66668 5.33337C2.66668 3.12424 4.45754 1.33337 6.66668 1.33337C8.87582 1.33337 10.6667 3.12424 10.6667 5.33337C10.6667 7.54251 8.87582 9.33337 6.66668 9.33337C4.45754 9.33337 2.66668 7.54251 2.66668 5.33337ZM11.219 2.50495C11.4793 2.2446 11.9014 2.2446 12.1618 2.50495C13.7239 4.06704 13.7239 6.5997 12.1618 8.1618C11.9014 8.42215 11.4793 8.42215 11.219 8.1618C10.9586 7.90145 10.9586 7.47934 11.219 7.21899C12.2604 6.17759 12.2604 4.48915 11.219 3.44776C10.9586 3.18741 10.9586 2.7653 11.219 2.50495ZM11.6866 11.1717C11.7759 10.8145 12.1378 10.5973 12.495 10.6866C13.3803 10.9079 13.9407 11.474 14.263 12.1186C14.5748 12.7423 14.6667 13.4381 14.6667 14C14.6667 14.3682 14.3682 14.6667 14 14.6667C13.6318 14.6667 13.3333 14.3682 13.3333 14C13.3333 13.562 13.2585 13.0911 13.0704 12.7149C12.8927 12.3594 12.6197 12.0921 12.1717 11.9801C11.8145 11.8908 11.5973 11.5289 11.6866 11.1717ZM4.33334 12C3.4937 12 2.66668 12.8091 2.66668 14C2.66668 14.3682 2.3682 14.6667 2.00001 14.6667C1.63182 14.6667 1.33334 14.3682 1.33334 14C1.33334 12.2455 2.59565 10.6667 4.33334 10.6667H9.00001C10.7377 10.6667 12 12.2455 12 14C12 14.3682 11.7015 14.6667 11.3333 14.6667C10.9652 14.6667 10.6667 14.3682 10.6667 14C10.6667 12.8091 9.83965 12 9.00001 12H4.33334Z"
        fill="#32302D" />
</svg>