<svg width="14" height="14" viewBox="0 0 14 14" fill="none" xmlns="http://www.w3.org/2000/svg">
<path d="M12.5872 3.30778L8.49052 1.35611C7.58875 0.817466 6.46635 0.807908 5.55552 1.33111L1.41276 3.30778C1.39721 3.31556 1.38109 3.3239 1.36609 3.33278C0.382966 3.89491 0.0416642 5.14759 0.6038 6.13072C0.794347 6.464 1.07463 6.73707 1.41276 6.91889L2.55555 7.46335V10.1856C2.55622 11.4028 3.34828 12.4782 4.51055 12.84C5.31937 13.074 6.15805 13.1886 7 13.18C7.84182 13.1894 8.6805 13.0758 9.48945 12.8428C10.6517 12.4811 11.4438 11.4056 11.4445 10.1883V7.46223L12.5556 6.93111V11.5133C12.5556 11.8201 12.8043 12.0689 13.1111 12.0689C13.4179 12.0689 13.6667 11.8201 13.6667 11.5133V4.84666C13.6704 4.19429 13.1553 3.59163 12.5872 3.30778ZM10.3333 10.1883C10.3336 10.9164 9.8612 11.5605 9.16664 11.7789C8.46232 11.9801 7.73245 12.0778 6.99997 12.0689C6.2675 12.0778 5.53763 11.9801 4.83331 11.7789C4.13875 11.5605 3.66635 10.9164 3.66664 10.1883V7.9928L5.50943 8.87059C5.96411 9.14058 6.48341 9.28246 7.01221 9.28113C7.51555 9.2847 8.01042 9.15144 8.44388 8.89559L10.3333 7.99277V10.1883ZM12.1111 5.91611L7.92109 7.91611C7.33687 8.25629 6.61273 8.24665 6.03776 7.89111L1.93831 5.94111C1.48135 5.6947 1.31068 5.12452 1.55708 4.66759C1.64041 4.51306 1.76536 4.38496 1.91776 4.29778L6.08164 2.3089C6.66604 1.96947 7.38979 1.97908 7.96497 2.3339L12.0616 4.28556C12.3629 4.45285 12.5514 4.76877 12.5555 5.11335C12.5561 5.43975 12.388 5.7433 12.1111 5.91611Z" fill="black"/>
</svg>
