<svg width="16" height="16" viewBox="0 0 16 16" fill="none" xmlns="http://www.w3.org/2000/svg">
    <path
        d="M6.66668 2.66671C5.19392 2.66671 4.00001 3.86061 4.00001 5.33337C4.00001 6.80613 5.19392 8.00004 6.66668 8.00004C8.13944 8.00004 9.33334 6.80613 9.33334 5.33337C9.33334 3.86061 8.13944 2.66671 6.66668 2.66671ZM2.66668 5.33337C2.66668 3.12424 4.45754 1.33337 6.66668 1.33337C8.87582 1.33337 10.6667 3.12424 10.6667 5.33337C10.6667 7.54251 8.87582 9.33337 6.66668 9.33337C4.45754 9.33337 2.66668 7.54251 2.66668 5.33337ZM14.4429 7.50177C14.7181 7.74638 14.7429 8.16776 14.4983 8.44295L12.7205 10.443C12.594 10.5853 12.4127 10.6667 12.2222 10.6667C12.0318 10.6667 11.8505 10.5853 11.724 10.443L10.8351 9.44295C10.5905 9.16776 10.6152 8.74638 10.8904 8.50177C11.1656 8.25716 11.587 8.28194 11.8316 8.55713L12.2222 8.99657L13.5017 7.55713C13.7463 7.28194 14.1677 7.25716 14.4429 7.50177ZM4.33334 12C3.4937 12 2.66668 12.8091 2.66668 14C2.66668 14.3682 2.3682 14.6667 2.00001 14.6667C1.63182 14.6667 1.33334 14.3682 1.33334 14C1.33334 12.2455 2.59565 10.6667 4.33334 10.6667H9.00001C10.7377 10.6667 12 12.2455 12 14C12 14.3682 11.7015 14.6667 11.3333 14.6667C10.9652 14.6667 10.6667 14.3682 10.6667 14C10.6667 12.8091 9.83965 12 9.00001 12H4.33334Z"
        fill="#32302D" />
</svg>