<svg width="12" height="14" viewBox="0 0 12 14" fill="none" xmlns="http://www.w3.org/2000/svg">
<path d="M3.99996 6.73568C4.36815 6.73568 4.66663 6.4372 4.66663 6.06901C4.66663 5.70082 4.36815 5.40234 3.99996 5.40234C3.63177 5.40234 3.33329 5.70082 3.33329 6.06901C3.33329 6.4372 3.63177 6.73568 3.99996 6.73568Z" fill="#32302D"/>
<path d="M5.33329 6.06901C5.33329 5.70082 5.63177 5.40234 5.99996 5.40234H7.99996C8.36815 5.40234 8.66663 5.70082 8.66663 6.06901C8.66663 6.4372 8.36815 6.73568 7.99996 6.73568H5.99996C5.63177 6.73568 5.33329 6.4372 5.33329 6.06901Z" fill="#32302D"/>
<path d="M5.99996 7.40234C5.63177 7.40234 5.33329 7.70082 5.33329 8.06901C5.33329 8.4372 5.63177 8.73568 5.99996 8.73568H7.99996C8.36815 8.73568 8.66663 8.4372 8.66663 8.06901C8.66663 7.70082 8.36815 7.40234 7.99996 7.40234H5.99996Z" fill="#32302D"/>
<path d="M5.99996 9.40234C5.63177 9.40234 5.33329 9.70082 5.33329 10.069C5.33329 10.4372 5.63177 10.7357 5.99996 10.7357H7.99996C8.36815 10.7357 8.66663 10.4372 8.66663 10.069C8.66663 9.70082 8.36815 9.40234 7.99996 9.40234H5.99996Z" fill="#32302D"/>
<path d="M4.66663 8.06901C4.66663 8.4372 4.36815 8.73568 3.99996 8.73568C3.63177 8.73568 3.33329 8.4372 3.33329 8.06901C3.33329 7.70082 3.63177 7.40234 3.99996 7.40234C4.36815 7.40234 4.66663 7.70082 4.66663 8.06901Z" fill="#32302D"/>
<path d="M3.99996 10.7357C4.36815 10.7357 4.66663 10.4372 4.66663 10.069C4.66663 9.70082 4.36815 9.40234 3.99996 9.40234C3.63177 9.40234 3.33329 9.70082 3.33329 10.069C3.33329 10.4372 3.63177 10.7357 3.99996 10.7357Z" fill="#32302D"/>
<path d="M3.99996 0.402344C3.63177 0.402344 3.33329 0.700821 3.33329 1.06901H1.99996C1.26358 1.06901 0.666626 1.66596 0.666626 2.40234V12.4023C0.666626 13.1387 1.26358 13.7357 1.99996 13.7357H9.99996C10.7363 13.7357 11.3333 13.1387 11.3333 12.4023V2.40234C11.3333 1.66596 10.7363 1.06901 9.99996 1.06901H8.66663C8.66663 0.700821 8.36815 0.402344 7.99996 0.402344H3.99996ZM8.66663 2.40234H9.99996V12.4023H1.99996V2.40234H3.33329V3.06901C3.33329 3.4372 3.63177 3.73568 3.99996 3.73568H7.99996C8.36815 3.73568 8.66663 3.4372 8.66663 3.06901V2.40234ZM4.66663 2.40234V1.73568H7.33329V2.40234H4.66663Z" fill="#32302D"/>
</svg>
