<svg width="16" height="16" viewBox="0 0 16 16" fill="none" xmlns="http://www.w3.org/2000/svg">
    <path
        d="M5.3335 5.33333C3.83502 5.33333 2.66683 6.50152 2.66683 8C2.66683 9.49848 3.83502 10.6667 5.3335 10.6667H6.66683C7.03502 10.6667 7.3335 10.9651 7.3335 11.3333C7.3335 11.7015 7.03502 12 6.66683 12H5.3335C3.09864 12 1.3335 10.2349 1.3335 8C1.3335 5.76514 3.09864 4 5.3335 4H6.66683C7.03502 4 7.3335 4.29848 7.3335 4.66667C7.3335 5.03486 7.03502 5.33333 6.66683 5.33333H5.3335ZM8.66683 4.66667C8.66683 4.29848 8.96531 4 9.3335 4H10.6668C12.9017 4 14.6668 5.76514 14.6668 8C14.6668 10.2349 12.9017 12 10.6668 12H9.3335C8.96531 12 8.66683 11.7015 8.66683 11.3333C8.66683 10.9651 8.96531 10.6667 9.3335 10.6667H10.6668C12.1653 10.6667 13.3335 9.49848 13.3335 8C13.3335 6.50152 12.1653 5.33333 10.6668 5.33333H9.3335C8.96531 5.33333 8.66683 5.03486 8.66683 4.66667ZM4.66683 8C4.66683 7.63181 4.96531 7.33333 5.3335 7.33333H10.6668C11.035 7.33333 11.3335 7.63181 11.3335 8C11.3335 8.36819 11.035 8.66667 10.6668 8.66667H5.3335C4.96531 8.66667 4.66683 8.36819 4.66683 8Z"
        fill="#32302D" />
</svg>