<svg width="14" height="14" viewBox="0 0 14 14" fill="none" xmlns="http://www.w3.org/2000/svg">
<path d="M2.78741 3.73217C2.08537 4.6353 1.66732 5.77013 1.66732 7.0026C1.66732 9.94812 4.05513 12.3359 7.00065 12.3359C8.23313 12.3359 9.36796 11.9179 10.2711 11.2158L2.78741 3.73217ZM3.73022 2.78937L11.2139 10.273C11.9159 9.36991 12.334 8.23508 12.334 7.0026C12.334 4.05709 9.94617 1.66927 7.00065 1.66927C5.76818 1.66927 4.63334 2.08733 3.73022 2.78937ZM0.333984 7.0026C0.333984 3.32071 3.31875 0.335938 7.00065 0.335938C10.6826 0.335938 13.6673 3.32071 13.6673 7.0026C13.6673 10.6845 10.6826 13.6693 7.00065 13.6693C3.31875 13.6693 0.333984 10.6845 0.333984 7.0026Z" fill="#ED7635"/>
</svg>
