<svg width="16" height="16" viewBox="0 0 16 16" fill="none" xmlns="http://www.w3.org/2000/svg">
<path d="M5.52925 2.85932C5.65427 2.7343 5.82384 2.66406 6.00065 2.66406H10.0007C10.1775 2.66406 10.347 2.7343 10.4721 2.85932L11.6101 3.9974H13.334C14.0704 3.9974 14.6673 4.59435 14.6673 5.33073V11.9974C14.6673 12.7338 14.0704 13.3307 13.334 13.3307H2.66732C1.93094 13.3307 1.33398 12.7338 1.33398 11.9974V5.33073C1.33398 4.59435 1.93094 3.9974 2.66732 3.9974H4.39118L5.52925 2.85932ZM6.27679 3.9974L5.13872 5.13547C5.0137 5.26049 4.84413 5.33073 4.66732 5.33073L2.66732 5.33073V11.9974H13.334V5.33073H11.334C11.1572 5.33073 10.9876 5.26049 10.8626 5.13547L9.72451 3.9974H6.27679ZM8.00065 6.9974C7.26427 6.9974 6.66732 7.59435 6.66732 8.33073C6.66732 9.06711 7.26427 9.66406 8.00065 9.66406C8.73703 9.66406 9.33398 9.06711 9.33398 8.33073C9.33398 7.59435 8.73703 6.9974 8.00065 6.9974ZM5.33398 8.33073C5.33398 6.85797 6.52789 5.66406 8.00065 5.66406C9.47341 5.66406 10.6673 6.85797 10.6673 8.33073C10.6673 9.80349 9.47341 10.9974 8.00065 10.9974C6.52789 10.9974 5.33398 9.80349 5.33398 8.33073Z" fill="#32302D"/>
</svg>
