<svg width="16" height="16" viewBox="0 0 16 16" fill="none" xmlns="http://www.w3.org/2000/svg">
<path d="M1.33398 3.33333C1.33398 2.59695 1.93094 2 2.66732 2H13.334C14.0704 2 14.6673 2.59695 14.6673 3.33333V10.6667C14.6673 11.403 14.0704 12 13.334 12H2.66732C1.93094 12 1.33398 11.403 1.33398 10.6667V3.33333ZM13.334 3.33333H2.66732V10.6667H13.334V3.33333Z" fill="#32302D"/>
<path d="M14.6673 13.3333C14.6673 13.7015 14.3688 14 14.0007 14H2.00065C1.63246 14 1.33398 13.7015 1.33398 13.3333C1.33398 12.9651 1.63246 12.6667 2.00065 12.6667L14.0007 12.6667C14.3688 12.6667 14.6673 12.9651 14.6673 13.3333Z" fill="#32302D"/>
</svg>
