<svg width="16" height="16" viewBox="0 0 16 16" fill="none" xmlns="http://www.w3.org/2000/svg">
<path d="M5.33268 2.0026C5.33268 1.63441 5.63116 1.33594 5.99935 1.33594H9.99935C10.3675 1.33594 10.666 1.63441 10.666 2.0026H11.9993C12.7357 2.0026 13.3327 2.59956 13.3327 3.33594V13.3359C13.3327 14.0723 12.7357 14.6693 11.9993 14.6693H3.99935C3.26297 14.6693 2.66602 14.0723 2.66602 13.3359V3.33594C2.66602 2.59956 3.26297 2.0026 3.99935 2.0026H5.33268ZM5.33268 3.33594H3.99935V13.3359H11.9993V3.33594H10.666V4.0026C10.666 4.37079 10.3675 4.66927 9.99935 4.66927H5.99935C5.63116 4.66927 5.33268 4.37079 5.33268 4.0026V3.33594ZM9.33268 2.66927H6.66602V3.33594H9.33268V2.66927Z" fill="#32302D"/>
</svg>
