<svg width="14" height="14" viewBox="0 0 14 14" fill="none" xmlns="http://www.w3.org/2000/svg">
<path d="M3.66732 1.66683C3.66732 0.93045 4.26427 0.333496 5.00065 0.333496H9.00065C9.73703 0.333496 10.334 0.93045 10.334 1.66683V3.00016H11.6604C11.6646 3.00012 11.6687 3.00012 11.6728 3.00016H13.0007C13.3688 3.00016 13.6673 3.29864 13.6673 3.66683C13.6673 4.03502 13.3688 4.3335 13.0007 4.3335H12.2881L11.7099 12.4285C11.66 13.1262 11.0794 13.6668 10.3799 13.6668H3.6214C2.92188 13.6668 2.34129 13.1262 2.29145 12.4285L1.71324 4.3335H1.00065C0.632461 4.3335 0.333984 4.03502 0.333984 3.66683C0.333984 3.29864 0.632461 3.00016 1.00065 3.00016H2.32848C2.33262 3.00012 2.33674 3.00012 2.34087 3.00016H3.66732V1.66683ZM5.00065 3.00016H9.00065V1.66683H5.00065V3.00016ZM3.04997 4.3335L3.6214 12.3335H10.3799L10.9513 4.3335H3.04997Z" fill="#32302D"/>
</svg>
