<svg width="16" height="16" viewBox="0 0 16 16" fill="none" xmlns="http://www.w3.org/2000/svg">
<path d="M2.66602 2.66927C2.66602 1.93289 3.26297 1.33594 3.99935 1.33594H9.33268C9.50949 1.33594 9.67906 1.40618 9.80409 1.5312L13.1374 4.86453C13.2624 4.98956 13.3327 5.15913 13.3327 5.33594V13.3359C13.3327 14.0723 12.7357 14.6693 11.9993 14.6693H3.99935C3.26297 14.6693 2.66602 14.0723 2.66602 13.3359V2.66927ZM11.7232 5.33594L9.33268 2.94541V5.33594H11.7232ZM7.99935 2.66927L3.99935 2.66927V13.3359H11.9993V6.66927H8.66602C8.29783 6.66927 7.99935 6.37079 7.99935 6.0026V2.66927ZM5.33268 8.66927C5.33268 8.30108 5.63116 8.0026 5.99935 8.0026H9.99935C10.3675 8.0026 10.666 8.30108 10.666 8.66927C10.666 9.03746 10.3675 9.33594 9.99935 9.33594H5.99935C5.63116 9.33594 5.33268 9.03746 5.33268 8.66927ZM5.33268 11.3359C5.33268 10.9677 5.63116 10.6693 5.99935 10.6693H9.99935C10.3675 10.6693 10.666 10.9677 10.666 11.3359C10.666 11.7041 10.3675 12.0026 9.99935 12.0026H5.99935C5.63116 12.0026 5.33268 11.7041 5.33268 11.3359Z" fill="#32302D"/>
</svg>
