<svg width="14" height="10" viewBox="0 0 14 10" fill="none" xmlns="http://www.w3.org/2000/svg">
    <path
        d="M8.9987 5.0026C8.9987 6.10717 8.10327 7.0026 6.9987 7.0026C5.89413 7.0026 4.9987 6.10717 4.9987 5.0026C4.9987 3.89803 5.89413 3.0026 6.9987 3.0026C8.10327 3.0026 8.9987 3.89803 8.9987 5.0026Z"
        fill="#32302D" />
    <path
        d="M13.595 4.70446C12.1562 1.82684 9.60078 0.335938 6.9987 0.335938C4.39661 0.335938 1.84123 1.82684 0.402413 4.70446C0.308571 4.89215 0.308571 5.11306 0.402413 5.30075C1.84123 8.17837 4.39661 9.66927 6.9987 9.66927C9.60078 9.66927 12.1562 8.17837 13.595 5.30075C13.6888 5.11306 13.6888 4.89215 13.595 4.70446ZM6.9987 8.33594C5.01951 8.33594 2.9974 7.25542 1.7518 5.0026C2.9974 2.74979 5.01951 1.66927 6.9987 1.66927C8.97789 1.66927 11 2.74979 12.2456 5.0026C11 7.25542 8.97789 8.33594 6.9987 8.33594Z"
        fill="#32302D" />
</svg>