<svg width="14" height="14" viewBox="0 0 14 14" fill="none" xmlns="http://www.w3.org/2000/svg">
<path d="M6.67701 0.419833C6.87836 0.307972 7.12319 0.307972 7.32453 0.419833L13.3245 3.75317C13.5362 3.87075 13.6674 4.09383 13.6674 4.33594C13.6674 4.57805 13.5362 4.80113 13.3245 4.91871L7.32453 8.25204C7.12319 8.3639 6.87836 8.3639 6.67701 8.25204L0.677011 4.91871C0.465367 4.80113 0.334106 4.57805 0.334106 4.33594C0.334106 4.09383 0.465367 3.87075 0.677011 3.75317L6.67701 0.419833ZM2.37352 4.33594L7.00077 6.90663L11.628 4.33594L7.00077 1.76524L2.37352 4.33594Z" fill="#32302D"/>
<path d="M0.418001 6.67884C0.59681 6.35699 1.00268 6.24102 1.32453 6.41983L7.00077 9.5733L12.677 6.41983C12.9989 6.24102 13.4047 6.35699 13.5835 6.67884C13.7624 7.0007 13.6464 7.40657 13.3245 7.58538L7.32453 10.9187C7.12319 11.0306 6.87836 11.0306 6.67701 10.9187L0.677011 7.58538C0.355155 7.40657 0.239192 7.0007 0.418001 6.67884Z" fill="#32302D"/>
<path d="M0.418001 9.34551C0.59681 9.02365 1.00268 8.90769 1.32453 9.0865L7.00077 12.24L12.677 9.0865C12.9989 8.90769 13.4047 9.02365 13.5835 9.34551C13.7624 9.66737 13.6464 10.0732 13.3245 10.252L7.32453 13.5854C7.12319 13.6972 6.87836 13.6972 6.67701 13.5854L0.677011 10.252C0.355155 10.0732 0.239192 9.66737 0.418001 9.34551Z" fill="#32302D"/>
</svg>
