<svg width="14" height="12" viewBox="0 0 14 12" fill="none" xmlns="http://www.w3.org/2000/svg">
    <path
        d="M11.975 1.71715C11.5168 1.21731 10.6894 1.18651 10.1379 1.73808L4.73788 7.13808C4.59823 7.27773 4.59823 7.45562 4.73788 7.59527C4.87753 7.73492 5.05542 7.73492 5.19507 7.59527L9.66173 3.1286C9.92208 2.86825 10.3442 2.86825 10.6045 3.1286C10.8649 3.38895 10.8649 3.81106 10.6045 4.07141L6.13788 8.53808C5.47753 9.19843 4.45542 9.19843 3.79507 8.53808C3.13472 7.87773 3.13472 6.85562 3.79507 6.19527L9.19507 0.795267C10.2401 -0.249754 11.9383 -0.283759 12.948 0.805472C13.9829 1.85108 14.0133 3.54105 12.9284 4.54755L6.60454 10.8714C5.14419 12.3318 2.85542 12.3318 1.39507 10.8714C-0.0652827 9.41106 -0.0652827 7.12228 1.39507 5.66193L6.79507 0.261933C7.05542 0.0015836 7.47753 0.0015836 7.73788 0.261933C7.99823 0.522283 7.99823 0.944393 7.73788 1.20474L2.33788 6.60474C1.39823 7.54439 1.39823 8.98895 2.33788 9.9286C3.27753 10.8683 4.72208 10.8683 5.66173 9.9286L11.9951 3.59527C12.0019 3.58844 12.0089 3.58176 12.016 3.57523C12.5158 3.11705 12.5466 2.28964 11.9951 1.73808C11.9882 1.73125 11.9816 1.72427 11.975 1.71715Z"
        fill="#6E6B68" />
</svg>