<svg width="34" height="34" viewBox="0 0 34 34" fill="none" xmlns="http://www.w3.org/2000/svg">
<path d="M17.3327 3.66927C9.96889 3.66927 3.99935 9.63881 3.99935 17.0026C3.99935 24.3664 9.96889 30.3359 17.3327 30.3359C24.6965 30.3359 30.666 24.3664 30.666 17.0026C30.666 9.63881 24.6965 3.66927 17.3327 3.66927ZM0.666016 17.0026C0.666016 7.79786 8.12794 0.335938 17.3327 0.335938C26.5374 0.335938 33.9994 7.79786 33.9994 17.0026C33.9994 26.2074 26.5374 33.6693 17.3327 33.6693C8.12794 33.6693 0.666016 26.2074 0.666016 17.0026ZM17.3327 7.0026C18.2532 7.0026 18.9993 7.7488 18.9993 8.66927V16.3122L23.5112 20.8241C24.1621 21.475 24.1621 22.5302 23.5112 23.1811C22.8603 23.832 21.805 23.832 21.1542 23.1811L16.1542 18.1811C15.8416 17.8686 15.666 17.4446 15.666 17.0026V8.66927C15.666 7.7488 16.4122 7.0026 17.3327 7.0026Z" fill="#32302D"/>
</svg>
