<svg width="34" height="34" viewBox="0 0 34 34" fill="none" xmlns="http://www.w3.org/2000/svg">
<path d="M16.6667 3.66927C9.30287 3.66927 3.33333 9.63881 3.33333 17.0026C3.33333 24.3664 9.30287 30.3359 16.6667 30.3359C24.0305 30.3359 30 24.3664 30 17.0026C30 9.63881 24.0305 3.66927 16.6667 3.66927ZM0 17.0026C0 7.79786 7.46192 0.335938 16.6667 0.335938C25.8714 0.335938 33.3333 7.79786 33.3333 17.0026C33.3333 26.2074 25.8714 33.6693 16.6667 33.6693C7.46192 33.6693 0 26.2074 0 17.0026ZM24.4406 11.5903C25.1286 12.2018 25.1905 13.2552 24.579 13.9432L15.6901 23.9432C15.3738 24.299 14.9205 24.5026 14.4444 24.5026C13.9684 24.5026 13.515 24.299 13.1988 23.9432L8.75432 18.9432C8.14279 18.2552 8.20476 17.2018 8.89273 16.5903C9.5807 15.9787 10.6342 16.0407 11.2457 16.7287L14.4444 20.3273L22.0877 11.7287C22.6992 11.0407 23.7526 10.9787 24.4406 11.5903Z" fill="#32302D"/>
</svg>
