<svg width="34" height="34" viewBox="0 0 34 34" fill="none" xmlns="http://www.w3.org/2000/svg">
<path d="M17.0007 3.66927C9.63685 3.66927 3.66732 9.63881 3.66732 17.0026C3.66732 24.3664 9.63685 30.3359 17.0007 30.3359C24.3645 30.3359 30.334 24.3664 30.334 17.0026C30.334 9.63881 24.3645 3.66927 17.0007 3.66927ZM0.333984 17.0026C0.333984 7.79786 7.79591 0.335938 17.0007 0.335938C26.2054 0.335938 33.6673 7.79786 33.6673 17.0026C33.6673 26.2074 26.2054 33.6693 17.0007 33.6693C7.79591 33.6693 0.333984 26.2074 0.333984 17.0026Z" fill="#32302D"/>
<path d="M17.0007 20.3359C16.0802 20.3359 15.334 19.5897 15.334 18.6693V17.0026C15.334 16.0821 16.0802 15.3359 17.0007 15.3359C17.9211 15.3359 18.6673 16.0821 18.6673 17.0026V18.6693C18.6673 19.5897 17.9211 20.3359 17.0007 20.3359Z" fill="#32302D"/>
<path d="M14.5007 24.5026C14.5007 23.1219 15.6199 22.0026 17.0007 22.0026C18.3814 22.0026 19.5007 23.1219 19.5007 24.5026C19.5007 25.8833 18.3814 27.0026 17.0007 27.0026C15.6199 27.0026 14.5007 25.8833 14.5007 24.5026Z" fill="#32302D"/>
<path d="M17.6505 10.0216C16.0555 9.9456 14.718 10.8366 14.478 12.2766C14.3266 13.1846 13.4679 13.7979 12.56 13.6466C11.652 13.4953 11.0387 12.6366 11.19 11.7286C11.7833 8.16861 15.0291 6.55962 17.8091 6.69199C19.2331 6.7598 20.6966 7.27092 21.8235 8.32391C22.9783 9.40306 23.6673 10.9489 23.6673 12.8359C23.6673 14.9881 22.8205 16.5841 21.3626 17.556C20.0241 18.4484 18.3832 18.6693 17.0007 18.6693C16.0802 18.6693 15.334 17.9231 15.334 17.0026C15.334 16.0821 16.0802 15.3359 17.0007 15.3359C18.1181 15.3359 18.9772 15.1401 19.5137 14.7825C19.9308 14.5044 20.334 14.0171 20.334 12.8359C20.334 11.8063 19.9813 11.1647 19.5476 10.7594C19.086 10.328 18.414 10.0579 17.6505 10.0216Z" fill="#32302D"/>
</svg>
