<svg width="12" height="12" viewBox="0 0 12 12" fill="none" xmlns="http://www.w3.org/2000/svg">
<path d="M8.86193 0.195262C9.12228 -0.0650874 9.54439 -0.0650874 9.80474 0.195262L11.8047 2.19526C12.0651 2.45561 12.0651 2.87772 11.8047 3.13807L5.80474 9.13807C5.67971 9.2631 5.51014 9.33333 5.33333 9.33333H3.33333C2.96514 9.33333 2.66667 9.03486 2.66667 8.66667V6.66667C2.66667 6.48986 2.7369 6.32029 2.86193 6.19526L8.86193 0.195262ZM4 6.94281V8H5.05719L10.3905 2.66667L9.33333 1.60948L4 6.94281ZM0 2.66667C0 1.93029 0.596954 1.33333 1.33333 1.33333H4.66667C5.03486 1.33333 5.33333 1.63181 5.33333 2C5.33333 2.36819 5.03486 2.66667 4.66667 2.66667H1.33333V10.6667H9.33333V7.33333C9.33333 6.96514 9.63181 6.66667 10 6.66667C10.3682 6.66667 10.6667 6.96514 10.6667 7.33333V10.6667C10.6667 11.403 10.0697 12 9.33333 12H1.33333C0.596954 12 0 11.403 0 10.6667V2.66667Z" fill="#ED7635"/>
</svg>
