<svg width="8" height="12" viewBox="0 0 8 12" fill="none" xmlns="http://www.w3.org/2000/svg">
<path d="M4.00008 0.666992C4.17689 0.666992 4.34646 0.73723 4.47149 0.862254L7.13815 3.52892C7.3985 3.78927 7.3985 4.21138 7.13815 4.47173C6.8778 4.73208 6.45569 4.73208 6.19534 4.47173L4.00008 2.27647L1.80482 4.47173C1.54447 4.73208 1.12236 4.73208 0.86201 4.47173C0.601661 4.21138 0.601661 3.78927 0.86201 3.52892L3.52868 0.862254C3.6537 0.73723 3.82327 0.666992 4.00008 0.666992ZM0.86201 7.52893C1.12236 7.26858 1.54447 7.26858 1.80482 7.52893L4.00008 9.72419L6.19535 7.52893C6.4557 7.26858 6.87781 7.26858 7.13815 7.52893C7.3985 7.78928 7.3985 8.21139 7.13815 8.47173L4.47149 11.1384C4.21114 11.3988 3.78903 11.3988 3.52868 11.1384L0.86201 8.47173C0.601661 8.21139 0.601661 7.78928 0.86201 7.52893Z" fill="#32302D"/>
</svg>
