<svg width="14" height="14" viewBox="0 0 14 14" fill="none" xmlns="http://www.w3.org/2000/svg">
<path d="M0.333984 1.0026C0.333984 0.634414 0.632461 0.335938 1.00065 0.335938H6.33398C6.5108 0.335938 6.68036 0.406175 6.80539 0.5312L13.4721 7.19787C13.7324 7.45822 13.7324 7.88033 13.4721 8.14068L8.13872 13.474C7.87837 13.7344 7.45626 13.7344 7.19591 13.474L0.529247 6.80734C0.404222 6.68232 0.333984 6.51275 0.333984 6.33594V1.0026ZM1.66732 1.66927V6.0598L7.66732 12.0598L12.0578 7.66927L6.05784 1.66927H1.66732Z" fill="#32302D"/>
<path d="M5.00065 4.0026C5.00065 4.55489 4.55294 5.0026 4.00065 5.0026C3.44837 5.0026 3.00065 4.55489 3.00065 4.0026C3.00065 3.45032 3.44837 3.0026 4.00065 3.0026C4.55294 3.0026 5.00065 3.45032 5.00065 4.0026Z" fill="#32302D"/>
</svg>
