<svg width="19" height="16" viewBox="0 0 19 16" fill="none" xmlns="http://www.w3.org/2000/svg">
<path d="M14.7072 5.2905C15.0977 5.68103 15.0977 6.31419 14.7072 6.70471C14.3167 7.09524 13.6835 7.09524 13.293 6.70471L10.502 3.91377V11C10.502 11.5523 10.0543 12 9.50204 12C8.94976 12 8.50204 11.5523 8.50204 11V3.91368L5.70906 6.70667C5.31854 7.09719 4.68537 7.09719 4.29485 6.70667C3.90432 6.31614 3.90432 5.68298 4.29485 5.29245L8.79489 0.792406C8.98243 0.604869 9.23678 0.499512 9.502 0.499512C9.76721 0.499512 10.0216 0.604868 10.2091 0.792405L14.7072 5.2905Z" fill="#1A1D1F"/>
<path fill-rule="evenodd" clip-rule="evenodd" d="M1.5 10C2.05228 10 2.5 10.4477 2.5 11V13C2.5 13.5523 2.94772 14 3.5 14H15.5C16.0523 14 16.5 13.5523 16.5 13V11C16.5 10.4477 16.9477 10 17.5 10C18.0523 10 18.5 10.4477 18.5 11V13C18.5 14.6569 17.1569 16 15.5 16H3.5C1.84315 16 0.5 14.6569 0.5 13V11C0.5 10.4477 0.947715 10 1.5 10Z" fill="#1A1D1F"/>
</svg>
