<svg width="14" height="14" viewBox="0 0 14 14" fill="none" xmlns="http://www.w3.org/2000/svg">
<path d="M7.00065 1.66927C4.05513 1.66927 1.66732 4.05709 1.66732 7.0026C1.66732 9.94812 4.05513 12.3359 7.00065 12.3359C9.94617 12.3359 12.334 9.94812 12.334 7.0026C12.334 4.05709 9.94617 1.66927 7.00065 1.66927ZM0.333984 7.0026C0.333984 3.32071 3.31875 0.335938 7.00065 0.335938C10.6826 0.335938 13.6673 3.32071 13.6673 7.0026C13.6673 10.6845 10.6826 13.6693 7.00065 13.6693C3.31875 13.6693 0.333984 10.6845 0.333984 7.0026Z" fill="#32302D"/>
<path d="M7.00065 8.33594C6.63246 8.33594 6.33398 8.03746 6.33398 7.66927L6.33399 3.66927C6.33399 3.30108 6.63246 3.0026 7.00065 3.0026C7.36884 3.0026 7.66732 3.30108 7.66732 3.66927L7.66732 7.66927C7.66732 8.03746 7.36884 8.33594 7.00065 8.33594Z" fill="#32302D"/>
<path d="M6.00065 10.0026C6.00065 9.45032 6.44837 9.0026 7.00065 9.0026C7.55294 9.0026 8.00065 9.45032 8.00065 10.0026C8.00065 10.5549 7.55294 11.0026 7.00065 11.0026C6.44837 11.0026 6.00065 10.5549 6.00065 10.0026Z" fill="#32302D"/>
</svg>
