<svg width="16" height="16" viewBox="0 0 16 16" fill="none" xmlns="http://www.w3.org/2000/svg">
<path d="M2.66732 2C1.93094 2 1.33398 2.59695 1.33398 3.33333V6.66667V12.6667C1.33398 13.403 1.93094 14 2.66732 14H13.334C14.0704 14 14.6673 13.403 14.6673 12.6667V6.66667V3.33333C14.6673 2.59695 14.0704 2 13.334 2H2.66732ZM13.334 3.33333V6H2.66732V3.33333H13.334ZM2.66732 7.33333H13.334V12.6667H2.66732V7.33333ZM6.66732 4.66667C6.66732 5.03486 6.36884 5.33333 6.00065 5.33333C5.63246 5.33333 5.33398 5.03486 5.33398 4.66667C5.33398 4.29848 5.63246 4 6.00065 4C6.36884 4 6.66732 4.29848 6.66732 4.66667ZM4.00065 5.33333C4.36884 5.33333 4.66732 5.03486 4.66732 4.66667C4.66732 4.29848 4.36884 4 4.00065 4C3.63246 4 3.33398 4.29848 3.33398 4.66667C3.33398 5.03486 3.63246 5.33333 4.00065 5.33333Z" fill="#32302D"/>
</svg>
