<svg width="10" height="10" viewBox="0 0 10 10" fill="none" xmlns="http://www.w3.org/2000/svg">
<path d="M0.529247 0.5312C0.789596 0.27085 1.21171 0.27085 1.47206 0.5312L5.00065 4.0598L8.52925 0.5312C8.7896 0.27085 9.21171 0.27085 9.47205 0.5312C9.7324 0.791549 9.7324 1.21366 9.47205 1.47401L5.94346 5.0026L9.47205 8.5312C9.7324 8.79155 9.7324 9.21366 9.47205 9.47401C9.21171 9.73436 8.7896 9.73436 8.52925 9.47401L5.00065 5.94541L1.47206 9.47401C1.21171 9.73436 0.789596 9.73436 0.529247 9.47401C0.268897 9.21366 0.268897 8.79155 0.529247 8.5312L4.05784 5.0026L0.529247 1.47401C0.268897 1.21366 0.268897 0.791549 0.529247 0.5312Z" fill="#ED7635"/>
</svg>
