<svg width="104" height="48" viewBox="0 0 104 48" fill="none" xmlns="http://www.w3.org/2000/svg">
    <g clip-path="url(#clip0_1499_3886)">
        <path fill-rule="evenodd" clip-rule="evenodd" d="M12.8257 17.126H90.5851V43.4114H12.8257V17.126Z"
            fill="#ED7635" />
        <path fill-rule="evenodd" clip-rule="evenodd"
            d="M0.171875 47.876H1.4912V1.6063H47.1491H56.8532H102.509V47.876H103.828V0H56.8532H47.1491H0.171875V47.876Z"
            fill="#ED7635" />
        <path fill-rule="evenodd" clip-rule="evenodd"
            d="M52.001 5.95866C41.8431 5.93184 31.8703 9.82769 23.1449 17.2312C14.4196 24.6347 7.26858 35.2686 2.45361 48H4.32059C9.07753 35.8859 16.0187 25.7973 24.4281 18.7748C32.8376 11.7523 42.4109 8.05018 52.1607 8.05018C61.9106 8.05018 71.4839 11.7523 79.8933 18.7748C88.3028 25.7973 95.2439 35.8859 100.001 48H101.577C96.7602 35.2624 89.6046 24.6245 80.8737 17.2206C72.1428 9.81666 62.1639 5.92436 52.001 5.95866Z"
            fill="#ED7635" />
        <path fill-rule="evenodd" clip-rule="evenodd" d="M14.6016 30.2835H89.3987V41.9026H14.6016V30.2835Z"
            fill="white" />
        <path
            d="M29.3673 37.1722H26.3822L25.8595 38.2057C25.7599 38.3672 25.6932 38.5642 25.6665 38.7756C25.6665 38.876 25.7225 38.9616 25.8325 39.0384C26.0673 39.143 26.3125 39.1929 26.5585 39.186V39.3661H24.1294V39.186C24.3427 39.1717 24.5529 39.1079 24.7517 38.997C25.0094 38.7505 25.2278 38.4296 25.3927 38.0551L28.1081 32.6634H28.3052L31.0019 38.1142C31.1498 38.4573 31.3506 38.7481 31.589 38.9646C31.8207 39.115 32.0729 39.1907 32.3275 39.186V39.3661H29.276V39.186C29.4872 39.1958 29.698 39.1518 29.8983 39.0561C30.0062 38.9823 30.0601 38.8907 30.0601 38.7844C30.0267 38.5364 29.948 38.3053 29.832 38.1142L29.3652 37.1722H29.3673ZM29.2096 36.812L27.9007 34.1545L26.5585 36.812H29.2096ZM32.2984 32.811H34.3998L39.117 37.7274V33.9567C39.117 33.5551 39.061 33.3012 38.9573 33.2037C38.7536 33.0466 38.5225 32.9759 38.2914 33H38.0238V32.8199H40.7081V33H40.4156C40.1713 32.9686 39.9268 33.0572 39.7228 33.251C39.6182 33.4541 39.5736 33.7074 39.5983 33.9567V39.4783H39.3909L34.3168 34.1929V38.2293C34.3168 38.6339 34.3666 38.8819 34.4704 38.9852C34.6749 39.1389 34.9055 39.2085 35.1362 39.186H35.408V39.3661H32.7258V39.186H32.9913C33.2383 39.2189 33.4858 39.1303 33.6924 38.935C33.7957 38.7311 33.8395 38.4782 33.8148 38.2293V33.6614C33.6555 33.4923 33.4854 33.345 33.3066 33.2215C33.1426 33.1301 32.9722 33.0638 32.7984 33.0236C32.6329 32.9887 32.4657 32.9739 32.2984 32.9793V32.7992V32.811ZM41.0628 39.3661V39.186H41.3533C41.5992 39.2195 41.8453 39.1251 42.0461 38.9203C42.1501 38.7134 42.1946 38.4578 42.1706 38.2057V33.9715C42.1706 33.561 42.1166 33.3071 42.0129 33.2037C41.8121 33.0434 41.583 32.9696 41.3533 32.9911H41.0628V32.811H44.2014C45.0851 32.7742 45.9687 32.8862 46.8339 33.1447C47.3788 33.3237 47.8802 33.7071 48.286 34.2549C48.4586 34.4857 48.5962 34.7642 48.6904 35.0735C48.7845 35.3827 48.8333 35.7161 48.8336 36.0531C48.8336 36.9665 48.5079 37.7293 47.8565 38.3415C47.1236 39.0246 46.0082 39.3661 44.5105 39.3661H41.0628ZM43.2617 38.8907C43.6631 38.9731 44.0677 39.0184 44.4732 39.0266C45.2414 39.0679 46.0017 38.7943 46.6638 38.2382C46.9285 38.0227 47.1485 37.7116 47.3015 37.3361C47.4545 36.9607 47.5351 36.5344 47.5351 36.1004C47.5351 35.6664 47.4545 35.2401 47.3015 34.8646C47.1485 34.4892 46.9285 34.178 46.6638 33.9626C46.0829 33.44 45.3403 33.1801 44.4296 33.1801C44.0384 33.1849 43.648 33.2312 43.2617 33.3189V38.8907ZM54.6046 37.1722H51.6175L51.0968 38.2057C50.9958 38.3661 50.9283 38.5635 50.9018 38.7756C50.9018 38.876 50.9578 38.9616 51.0698 39.0384C51.3047 39.143 51.5498 39.1929 51.7959 39.186V39.3661H49.3667V39.186C49.58 39.1717 49.7902 39.1079 49.989 38.997C50.2479 38.7516 50.4671 38.4305 50.6321 38.0551L53.3454 32.6634H53.5529L56.2372 38.1142C56.3853 38.458 56.5869 38.7489 56.8263 38.9646C57.0573 39.1148 57.3088 39.1904 57.5627 39.186V39.3661H54.5216V39.186C54.7329 39.1965 54.9437 39.1525 55.144 39.0561C55.2539 38.9823 55.3078 38.8907 55.3078 38.7844C55.2733 38.5363 55.1939 38.3053 55.0776 38.1142L54.6129 37.1722H54.6046ZM54.4449 36.812L53.1359 34.1545L51.7959 36.812H54.4449ZM64.3627 37.5531L64.5514 37.5856L63.8918 39.3573H57.9195V39.1772H58.212C58.4602 39.21 58.7083 39.1147 58.9111 38.9085C59.0106 38.6978 59.0526 38.4426 59.0293 38.1909V33.9715C59.0293 33.561 58.9754 33.3071 58.8696 33.2037C58.6696 33.0435 58.4411 32.9696 58.212 32.9911H57.9195V32.811H61.4128V32.9911C61.1236 32.9733 60.8338 33.005 60.5499 33.0856C60.4224 33.1234 60.3055 33.2138 60.2138 33.3455C60.1339 33.5738 60.1022 33.8302 60.1226 34.0837V38.1998C60.1096 38.3931 60.1417 38.5871 60.2138 38.752C60.2715 38.8293 60.3434 38.8816 60.4213 38.9026C60.7154 38.947 61.0114 38.9627 61.3071 38.9498H61.8713C62.2877 38.9672 62.7044 38.9296 63.1159 38.8376C63.3494 38.7673 63.5712 38.634 63.7694 38.4449C64.0019 38.2029 64.2015 37.9028 64.3585 37.5591L64.3627 37.5531ZM70.3577 32.9911V32.811H73.0897V32.9911H72.7993C72.5455 32.9666 72.295 33.083 72.1002 33.3159C71.9994 33.517 71.9564 33.7652 71.9799 34.0098V36.6673C72.0012 37.1974 71.9216 37.7257 71.7497 38.1968C71.5264 38.6381 71.2093 38.9653 70.8452 39.1299C70.2564 39.4215 69.6344 39.5537 69.0114 39.5197C68.362 39.5607 67.7127 39.4346 67.0947 39.1476C66.7179 38.9648 66.3927 38.6137 66.1674 38.1467C66.0471 37.8514 65.9849 37.3228 65.9849 36.5315V33.9715C65.9849 33.5699 65.9206 33.3041 65.7878 33.1801C65.594 33.0319 65.3744 32.9663 65.1551 32.9911H64.8647V32.811H68.1983V32.9911H67.9037C67.6614 32.9598 67.4191 33.0508 67.2191 33.248C67.1622 33.3486 67.1204 33.4646 67.0961 33.589C67.0719 33.7134 67.0657 33.8436 67.0781 33.9715V36.8268C67.0811 37.1255 67.1082 37.4227 67.159 37.7126C67.2012 38.0067 67.3054 38.2756 67.4577 38.4833C67.6404 38.6946 67.8525 38.8486 68.08 38.935C68.4044 39.0657 68.7408 39.1264 69.0778 39.1152C69.5368 39.1195 69.9934 39.0198 70.4303 38.8199C70.7486 38.7077 71.0343 38.4568 71.2477 38.1024C71.3929 37.8071 71.4675 37.3169 71.4675 36.626V33.9685C71.4675 33.5581 71.4136 33.3041 71.3078 33.2008C71.1069 33.041 70.8778 32.9671 70.6481 32.9882L70.3577 32.9911ZM78.5558 32.6634V34.9281H78.3484C78.2944 34.5407 78.1675 34.1815 77.9812 33.8888C77.7682 33.6006 77.509 33.3908 77.2261 33.2776C76.8995 33.1246 76.5576 33.0478 76.2138 33.0502C75.8751 33.0293 75.5383 33.1309 75.2347 33.3455C74.9774 33.5423 74.8488 33.7756 74.8488 34.0453C74.8553 34.1578 74.881 34.2664 74.9237 34.3616C74.9663 34.4568 75.0247 34.5357 75.0936 34.5915C75.3273 34.8337 75.8867 35.1555 76.7718 35.5571C77.2727 35.7709 77.765 36.0233 78.2467 36.313C78.4784 36.4563 78.6862 36.6676 78.8566 36.9331C78.9865 37.1398 79.0601 37.4058 79.064 37.6831C79.064 38.1791 78.8359 38.6073 78.3836 38.9675C77.8419 39.3537 77.2403 39.5385 76.6349 39.5049C76.4236 39.5059 76.2124 39.4911 76.0022 39.4606C75.886 39.4606 75.6413 39.3868 75.272 39.2864C75.0405 39.2115 74.8055 39.1602 74.5688 39.1329C74.4908 39.1282 74.4134 39.1537 74.3447 39.2067C74.2788 39.279 74.2349 39.3848 74.2224 39.502H74.0149V37.2579H74.2224C74.2911 37.6518 74.4288 38.0145 74.6227 38.312C74.8415 38.5907 75.1028 38.7929 75.3861 38.9026C75.7518 39.0608 76.1324 39.1385 76.5146 39.1329C76.9018 39.1595 77.2878 39.0511 77.6389 38.8169C77.9127 38.6043 78.0538 38.3533 78.0538 38.061C78.0464 37.8767 77.9909 37.703 77.8982 37.5738C77.7592 37.3758 77.5933 37.2201 77.4107 37.1161C77.2641 37.0197 76.861 36.814 76.2014 36.499C75.723 36.2839 75.2529 36.0336 74.7928 35.749C74.5555 35.6015 74.3401 35.3911 74.1581 35.1289C74.0251 34.9274 73.9509 34.6614 73.9506 34.3848C73.9506 33.9124 74.1581 33.499 74.5875 33.1683C75.0887 32.8039 75.6473 32.6291 76.2096 32.6604C76.6491 32.6651 77.0862 32.7505 77.5103 32.9144C77.6566 32.9793 77.8076 33.0199 77.9604 33.0354C78.0444 33.0405 78.128 33.0151 78.2032 32.9616C78.276 32.8909 78.3294 32.7866 78.3546 32.6663L78.5558 32.6634Z"
            fill="#ED7635" />
    </g>
    <defs>
        <clipPath id="clip0_1499_3886">
            <rect width="103.656" height="48" fill="white" transform="translate(0.171875)" />
        </clipPath>
    </defs>
</svg>